<svg width="100" height="100" viewBox="0 0 100 100" fill="none" xmlns="http://www.w3.org/2000/svg">
<circle cx="50" cy="50" r="45" fill="#2301BE" stroke="#D0D82C" stroke-width="10"/>
<path d="M50 25C48.7284 25 47.3599 26.0937 46.2716 28.2672C45.5065 29.8157 44.9138 31.8438 44.6444 34.1379C45.1401 34.569 45.6358 35.0216 46.1207 35.5065C47.3491 36.7241 48.4052 38.0172 49.278 39.3103C49.5151 39.2996 49.7629 39.2888 50 39.2888C50.2586 39.2888 50.5172 39.2996 50.7759 39.3211C51.6487 38.0172 52.7047 36.7349 53.9332 35.5065C54.3966 35.0431 54.8815 34.5905 55.3664 34.181C55.0862 31.8707 54.5043 29.8254 53.7284 28.2672C52.6401 26.0937 51.2716 25 50 25ZM34.6121 31.4784C33.6207 31.4925 32.8524 31.7759 32.3502 32.2802C31.4537 33.1767 31.2554 34.9138 32.0269 37.2198C32.7974 39.5259 34.4935 42.2306 36.9397 44.6767C37.8341 45.5711 38.7716 46.3685 39.6983 47.0582C40.722 43.4806 43.5668 40.6681 47.1552 39.6767C46.4655 38.7284 45.6573 37.7802 44.7522 36.875C42.306 34.4289 39.6013 32.7284 37.2953 31.9569C36.2823 31.6196 35.3772 31.4677 34.6121 31.4784ZM65.4418 31.4784C64.6767 31.4677 63.7716 31.6218 62.7694 31.9612C60.4634 32.7306 57.7586 34.4289 55.3125 36.875C54.3965 37.7909 53.5884 38.7392 52.8987 39.6875C56.4763 40.6897 59.2996 43.5129 60.3125 47.0905C61.2608 46.3901 62.2091 45.5819 63.1142 44.6767C65.5603 42.2306 67.2522 39.5259 68.028 37.2198C68.8039 34.9138 68.5991 33.18 67.7047 32.2812C67.1983 31.7759 66.4332 31.4914 65.4418 31.4784ZM50 41.2284C45.1401 41.2284 41.2284 45.1401 41.2284 50C41.2284 54.8599 45.1401 58.7716 50 58.7716C54.8599 58.7716 58.7716 54.8599 58.7716 50C58.7716 45.1401 54.8599 41.2284 50 41.2284ZM34.2457 44.6336C31.9106 44.903 29.8416 45.4957 28.2672 46.2716C26.0937 47.3599 25 48.7284 25 50C25 51.2716 26.0937 52.6401 28.2672 53.7284C29.8276 54.5043 31.875 55.0862 34.181 55.3664C34.6228 54.8599 35.0862 54.3534 35.5711 53.8685C36.778 52.6616 38.0388 51.6164 39.3103 50.7543C39.2996 50.5065 39.2888 50.2586 39.2888 50C39.2888 49.7198 39.2996 49.4397 39.3211 49.1703C38.0388 48.3082 36.778 47.2629 35.5711 46.056C35.1078 45.5927 34.6659 45.1078 34.2457 44.6336ZM65.7974 44.6336C65.3772 45.1078 64.9461 45.5819 64.4828 46.0453C63.2543 47.2737 61.972 48.3297 60.6789 49.2026C60.7004 49.4612 60.7112 49.7306 60.7112 50C60.7112 50.2371 60.7004 50.4849 60.6897 50.722C61.972 51.5841 63.2543 52.6401 64.472 53.8578C64.9677 54.3534 65.431 54.8491 65.8621 55.3556C68.1573 55.0862 70.1832 54.4935 71.7349 53.7284C73.9116 52.6401 75 51.2716 75 50C75 48.7284 73.9116 47.3599 71.7349 46.2716C70.1724 45.4957 68.1142 44.903 65.7974 44.6336ZM60.3233 52.834C59.3427 56.4332 56.5194 59.278 52.9418 60.3017C53.6207 61.2284 54.4073 62.1552 55.3017 63.0388C57.7478 65.4849 60.4526 67.1767 62.7586 67.9526C65.0647 68.7177 66.7996 68.5237 67.694 67.6293C68.5991 66.7349 68.7931 64.9892 68.0172 62.6832C67.2522 60.3772 65.5496 57.6724 63.1034 55.2263C62.1983 54.3211 61.2715 53.5237 60.3233 52.834ZM39.6767 52.8772C38.75 53.5668 37.8341 54.3534 36.9397 55.2371C34.4935 57.6832 32.7985 60.3879 32.0291 62.694C31.2522 65 31.4504 66.7349 32.3491 67.6401C33.2435 68.5345 34.9892 68.7392 37.2845 67.9526C39.5905 67.1875 42.2953 65.4849 44.7414 63.0388C45.625 62.1552 46.4116 61.2392 47.1013 60.3125C43.5129 59.2996 40.6897 56.4655 39.6767 52.8772ZM49.2241 60.6789C48.3621 61.9504 47.3276 63.2112 46.1207 64.4181C45.6358 64.903 45.1401 65.3664 44.6336 65.7974C44.903 68.1142 45.4957 70.1724 46.2716 71.7349C47.3599 73.9116 48.7284 75 50 75C51.2716 75 52.6401 73.9116 53.7284 71.7349C54.5043 70.1616 55.097 68.0927 55.3664 65.7543C54.8815 65.3341 54.3966 64.8815 53.9224 64.4073C52.7155 63.2004 51.681 61.9504 50.8297 60.6789C50.5496 60.7004 50.2802 60.7112 50 60.7112C49.7414 60.7112 49.4828 60.7004 49.2241 60.6789Z" fill="white"/>
</svg>
