<svg width="100" height="100" viewBox="0 0 100 100" fill="none" xmlns="http://www.w3.org/2000/svg">
<circle cx="50" cy="50" r="45" fill="#D7020E" stroke="black" stroke-width="10"/>
<path d="M49.5508 83.6953L52.6343 80.6118L52.6715 54.5741L60.2841 54.5764L62.0584 54.5741L62.056 52.8877L62.0558 37.0927L65.6876 37.0929L60.3649 23.7987L55.0468 37.0928L58.5121 37.0929L58.5121 51.1159L51.341 51.1156L51.3387 31.016L54.885 31.0184L49.5668 17.7241L44.2463 31.0161L47.7949 31.0159L47.7971 51.1155L40.6215 51.1157L40.6215 37.0927L44.0844 37.0904L38.7639 23.7985L33.4457 37.0928L37.0778 37.0928L37.0777 52.8878L37.0801 54.5741L38.8522 54.5741L46.4695 54.5764L46.4673 80.6118L49.5508 83.6953Z" fill="#FFE500"/>
</svg>
