<svg width="100" height="100" viewBox="0 0 100 100" fill="none" xmlns="http://www.w3.org/2000/svg">
<circle cx="50" cy="50" r="45" fill="#2C33FF" stroke="white" stroke-width="10"/>
<path d="M56.3751 67.0803H55.9981L52.9715 73.2049H55.642V75H44.6564V73.2049H49.2852L51.3588 66.6579C47.0441 65.9187 43.6196 63.9652 41.211 60.4593L40.7921 63.4688C38.3311 61.4414 36.8125 58.2629 37.2419 52.7297L36.0376 58.1996C36.0376 58.1996 32.6393 55.4857 34.7076 47.735C29.8578 37.83 31.0757 25 42.0278 25C56.4693 25 51.097 41.1352 53.4638 45.095L56.4379 48.1785C54.9613 47.0908 53.5371 46.3833 52.228 45.9926C48.437 44.8522 45.3581 46.1616 43.7348 48.6008C42.143 50.9768 41.9231 54.5248 43.9652 58.1045C45.8503 61.3886 49.7356 64.7571 56.3751 67.0803ZM66.5648 67.1859C54.6367 65.6019 48.3218 61.3147 45.8607 57.0063C44.3108 54.3031 44.3422 51.6315 45.5466 49.8363C46.6985 48.1045 48.9187 47.2914 51.6101 48.094C56.0923 49.4351 61.6323 54.905 66.5648 67.1859ZM61.9255 53.8912L72 64.3664C70.7014 64.736 69.4238 65.0739 68.188 65.3907C66.1773 60.5544 64.0514 56.7846 61.9255 53.8912ZM42.2687 30.4277C40.6664 28.8015 39.2107 28.3052 38.0378 28.4636C36.624 28.6536 35.4731 29.8046 34.8155 31.5048C33.0676 36.0348 34.8374 44.472 42.2687 44.472C49.7041 44.472 51.474 36.0348 49.7251 31.5048C49.0653 29.8046 47.9133 28.6536 46.4996 28.4636C45.3267 28.3052 43.871 28.8015 42.2687 30.4277ZM41.5985 32.3073L42.2687 33.0993L42.9389 32.3073C44.248 30.7445 45.3267 30.0792 46.2692 30.2059C47.1174 30.3221 47.7039 31.114 48.1019 32.1489C49.5052 35.8025 48.2694 42.7086 42.2687 42.7086C36.268 42.7086 35.0322 35.8025 36.446 32.1489C36.8335 31.114 37.4199 30.3221 38.2682 30.2059C39.2107 30.0792 40.2999 30.7445 41.5985 32.3073ZM37.2629 34.9261L38.8756 35.3801L41.2633 41.2936L43.295 41.2408L45.3476 35.4013L47.107 34.6938L46.2901 32.6452L43.6196 33.7328L42.1954 37.7772L40.4989 33.5533L37.8493 32.8036L37.2629 34.9261Z" fill="white"/>
</svg>
